<mxfile host="Electron" agent="Mozilla/5.0 (Windows NT 10.0; Win64; x64) AppleWebKit/537.36 (KHTML, like Gecko) draw.io/24.7.17 Chrome/128.0.6613.36 Electron/32.0.1 Safari/537.36" version="24.7.17">
  <diagram name="Page-1" id="YYbi-nz9EkIf0IqDQCsl">
    <mxGraphModel dx="1595" dy="737" grid="1" gridSize="10" guides="1" tooltips="1" connect="1" arrows="1" fold="1" page="0" pageScale="1" pageWidth="827" pageHeight="1169" math="0" shadow="0">
      <root>
        <mxCell id="0" />
        <mxCell id="1" parent="0" />
        <mxCell id="0wU5-xvqK_CzzEEygjWL-4" style="rounded=0;orthogonalLoop=1;jettySize=auto;html=1;exitX=0.25;exitY=1;exitDx=0;exitDy=0;entryX=0.5;entryY=0;entryDx=0;entryDy=0;" edge="1" parent="1" source="0wU5-xvqK_CzzEEygjWL-1" target="0wU5-xvqK_CzzEEygjWL-3">
          <mxGeometry relative="1" as="geometry" />
        </mxCell>
        <mxCell id="0wU5-xvqK_CzzEEygjWL-5" style="edgeStyle=orthogonalEdgeStyle;rounded=0;orthogonalLoop=1;jettySize=auto;html=1;exitX=0.5;exitY=1;exitDx=0;exitDy=0;entryX=0.5;entryY=0;entryDx=0;entryDy=0;" edge="1" parent="1" source="0wU5-xvqK_CzzEEygjWL-1" target="0wU5-xvqK_CzzEEygjWL-2">
          <mxGeometry relative="1" as="geometry" />
        </mxCell>
        <mxCell id="0wU5-xvqK_CzzEEygjWL-7" style="edgeStyle=orthogonalEdgeStyle;rounded=0;orthogonalLoop=1;jettySize=auto;html=1;exitX=0.75;exitY=1;exitDx=0;exitDy=0;entryX=0.75;entryY=0;entryDx=0;entryDy=0;curved=1;fillColor=#dae8fc;strokeColor=#6c8ebf;" edge="1" parent="1" source="0wU5-xvqK_CzzEEygjWL-1" target="0wU5-xvqK_CzzEEygjWL-6">
          <mxGeometry relative="1" as="geometry">
            <Array as="points">
              <mxPoint x="203" y="360" />
              <mxPoint x="298" y="360" />
            </Array>
          </mxGeometry>
        </mxCell>
        <mxCell id="0wU5-xvqK_CzzEEygjWL-1" value="Instrumented client&lt;div&gt;(Reporter)&lt;/div&gt;" style="rounded=0;whiteSpace=wrap;html=1;fontStyle=1;fillColor=#e1d5e7;strokeColor=#9673a6;" vertex="1" parent="1">
          <mxGeometry x="90" y="280" width="150" height="40" as="geometry" />
        </mxCell>
        <mxCell id="0wU5-xvqK_CzzEEygjWL-8" style="edgeStyle=orthogonalEdgeStyle;rounded=0;orthogonalLoop=1;jettySize=auto;html=1;exitX=0.5;exitY=1;exitDx=0;exitDy=0;entryX=0.25;entryY=0;entryDx=0;entryDy=0;curved=1;fillColor=#dae8fc;strokeColor=#6c8ebf;" edge="1" parent="1" source="0wU5-xvqK_CzzEEygjWL-2" target="0wU5-xvqK_CzzEEygjWL-6">
          <mxGeometry relative="1" as="geometry" />
        </mxCell>
        <mxCell id="0wU5-xvqK_CzzEEygjWL-2" value="Instrumented client&lt;div&gt;(Reporter)&lt;/div&gt;" style="rounded=0;whiteSpace=wrap;html=1;fontStyle=1;fillColor=#e1d5e7;strokeColor=#9673a6;" vertex="1" parent="1">
          <mxGeometry x="90" y="390" width="150" height="40" as="geometry" />
        </mxCell>
        <mxCell id="0wU5-xvqK_CzzEEygjWL-3" value="Non-instrumented server" style="rounded=0;whiteSpace=wrap;html=1;fontStyle=1;fillColor=#e1d5e7;strokeColor=#9673a6;" vertex="1" parent="1">
          <mxGeometry x="-160" y="390" width="170" height="40" as="geometry" />
        </mxCell>
        <mxCell id="0wU5-xvqK_CzzEEygjWL-20" style="rounded=0;orthogonalLoop=1;jettySize=auto;html=1;exitX=0.75;exitY=1;exitDx=0;exitDy=0;entryX=0.5;entryY=0;entryDx=0;entryDy=0;" edge="1" parent="1" source="0wU5-xvqK_CzzEEygjWL-6" target="0wU5-xvqK_CzzEEygjWL-10">
          <mxGeometry relative="1" as="geometry" />
        </mxCell>
        <mxCell id="0wU5-xvqK_CzzEEygjWL-6" value="Transport" style="rounded=0;whiteSpace=wrap;html=1;" vertex="1" parent="1">
          <mxGeometry x="230" y="500" width="90" height="30" as="geometry" />
        </mxCell>
        <mxCell id="0wU5-xvqK_CzzEEygjWL-9" value="Zipkin" style="rounded=0;whiteSpace=wrap;html=1;verticalAlign=top;fillColor=none;dashed=1;" vertex="1" parent="1">
          <mxGeometry x="350" y="480" width="250" height="240" as="geometry" />
        </mxCell>
        <mxCell id="0wU5-xvqK_CzzEEygjWL-16" style="rounded=0;orthogonalLoop=1;jettySize=auto;html=1;exitX=0.5;exitY=1;exitDx=0;exitDy=0;entryX=0.25;entryY=0;entryDx=0;entryDy=0;" edge="1" parent="1" source="0wU5-xvqK_CzzEEygjWL-10" target="0wU5-xvqK_CzzEEygjWL-13">
          <mxGeometry relative="1" as="geometry" />
        </mxCell>
        <mxCell id="0wU5-xvqK_CzzEEygjWL-10" value="Collector" style="rounded=0;whiteSpace=wrap;html=1;fillColor=#d5e8d4;strokeColor=#82b366;" vertex="1" parent="1">
          <mxGeometry x="375" y="590" width="80" height="30" as="geometry" />
        </mxCell>
        <mxCell id="0wU5-xvqK_CzzEEygjWL-19" style="rounded=0;orthogonalLoop=1;jettySize=auto;html=1;exitX=0.5;exitY=0;exitDx=0;exitDy=0;entryX=0.5;entryY=1;entryDx=0;entryDy=0;" edge="1" parent="1" source="0wU5-xvqK_CzzEEygjWL-11" target="0wU5-xvqK_CzzEEygjWL-12">
          <mxGeometry relative="1" as="geometry" />
        </mxCell>
        <mxCell id="0wU5-xvqK_CzzEEygjWL-11" value="API" style="rounded=0;whiteSpace=wrap;html=1;fillColor=#d5e8d4;strokeColor=#82b366;" vertex="1" parent="1">
          <mxGeometry x="495" y="590" width="80" height="30" as="geometry" />
        </mxCell>
        <mxCell id="0wU5-xvqK_CzzEEygjWL-12" value="UI" style="rounded=0;whiteSpace=wrap;html=1;fillColor=#d5e8d4;strokeColor=#82b366;" vertex="1" parent="1">
          <mxGeometry x="495" y="520" width="80" height="30" as="geometry" />
        </mxCell>
        <mxCell id="0wU5-xvqK_CzzEEygjWL-15" style="edgeStyle=orthogonalEdgeStyle;rounded=0;orthogonalLoop=1;jettySize=auto;html=1;dashed=1;" edge="1" parent="1" source="0wU5-xvqK_CzzEEygjWL-13" target="0wU5-xvqK_CzzEEygjWL-14">
          <mxGeometry relative="1" as="geometry" />
        </mxCell>
        <mxCell id="0wU5-xvqK_CzzEEygjWL-18" style="rounded=0;orthogonalLoop=1;jettySize=auto;html=1;exitX=0.75;exitY=0;exitDx=0;exitDy=0;" edge="1" parent="1" source="0wU5-xvqK_CzzEEygjWL-13" target="0wU5-xvqK_CzzEEygjWL-11">
          <mxGeometry relative="1" as="geometry" />
        </mxCell>
        <mxCell id="0wU5-xvqK_CzzEEygjWL-13" value="Storage" style="rounded=0;whiteSpace=wrap;html=1;fillColor=#d5e8d4;strokeColor=#82b366;" vertex="1" parent="1">
          <mxGeometry x="435" y="670" width="80" height="30" as="geometry" />
        </mxCell>
        <mxCell id="0wU5-xvqK_CzzEEygjWL-14" value="Database" style="sketch=0;outlineConnect=0;fontColor=#232F3E;gradientColor=none;fillColor=#232F3D;strokeColor=none;dashed=0;verticalLabelPosition=bottom;verticalAlign=top;align=center;html=1;fontSize=12;fontStyle=0;aspect=fixed;pointerEvents=1;shape=mxgraph.aws4.generic_database;" vertex="1" parent="1">
          <mxGeometry x="459.87" y="740" width="30.26" height="40" as="geometry" />
        </mxCell>
      </root>
    </mxGraphModel>
  </diagram>
</mxfile>
